<svg width="32" height="32" viewBox="0 0 32 32" fill="none" xmlns="http://www.w3.org/2000/svg">
<g clip-path="url(#paint0_angular_691_2394_clip_path)" data-figma-skip-parse="true"><g transform="matrix(0 0.016 -0.016 0 16 16)"><foreignObject x="-1075" y="-1075" width="2150" height="2150"><div xmlns="http://www.w3.org/1999/xhtml" style="background:conic-gradient(from 90deg,rgba(201, 170, 249, 1) 0deg,rgba(47, 106, 170, 1) 167.885deg,rgba(100, 63, 178, 1) 358.269deg,rgba(201, 170, 249, 1) 360deg);height:100%;width:100%;opacity:1"></div></foreignObject></g></g><path d="M32 16C32 24.8366 24.8366 32 16 32C7.16344 32 0 24.8366 0 16C0 7.16344 7.16344 0 16 0C24.8366 0 32 7.16344 32 16Z" data-figma-gradient-fill="{&#34;type&#34;:&#34;GRADIENT_ANGULAR&#34;,&#34;stops&#34;:[{&#34;color&#34;:{&#34;r&#34;:0.78823530673980713,&#34;g&#34;:0.66666668653488159,&#34;b&#34;:0.97647058963775635,&#34;a&#34;:1.0},&#34;position&#34;:0.0},{&#34;color&#34;:{&#34;r&#34;:0.18720462918281555,&#34;g&#34;:0.41917940974235535,&#34;b&#34;:0.67009091377258301,&#34;a&#34;:1.0},&#34;position&#34;:0.46634614467620850},{&#34;color&#34;:{&#34;r&#34;:0.39215686917304993,&#34;g&#34;:0.24705882370471954,&#34;b&#34;:0.69803923368453979,&#34;a&#34;:1.0},&#34;position&#34;:0.99519228935241699}],&#34;stopsVar&#34;:[{&#34;color&#34;:{&#34;r&#34;:0.78823530673980713,&#34;g&#34;:0.66666668653488159,&#34;b&#34;:0.97647058963775635,&#34;a&#34;:1.0},&#34;position&#34;:0.0},{&#34;color&#34;:{&#34;r&#34;:0.18720462918281555,&#34;g&#34;:0.41917940974235535,&#34;b&#34;:0.67009091377258301,&#34;a&#34;:1.0},&#34;position&#34;:0.46634614467620850},{&#34;color&#34;:{&#34;r&#34;:0.39215686917304993,&#34;g&#34;:0.24705882370471954,&#34;b&#34;:0.69803923368453979,&#34;a&#34;:1.0},&#34;position&#34;:0.99519228935241699}],&#34;transform&#34;:{&#34;m00&#34;:1.9594349641362686e-15,&#34;m01&#34;:-32.0,&#34;m02&#34;:32.0,&#34;m10&#34;:32.0,&#34;m11&#34;:1.9594349641362686e-15,&#34;m12&#34;:0.0},&#34;opacity&#34;:1.0,&#34;blendMode&#34;:&#34;NORMAL&#34;,&#34;visible&#34;:true}"/>
<defs>
<clipPath id="paint0_angular_691_2394_clip_path"><path d="M32 16C32 24.8366 24.8366 32 16 32C7.16344 32 0 24.8366 0 16C0 7.16344 7.16344 0 16 0C24.8366 0 32 7.16344 32 16Z"/></clipPath></defs>
</svg>
