<svg width="20" height="20" viewBox="0 0 20 20" fill="none" xmlns="http://www.w3.org/2000/svg">
<path d="M1.5 1.75C1.5 1.61193 1.61193 1.5 1.75 1.5H15.25C15.3881 1.5 15.5 1.61193 15.5 1.75V11.75C15.5 12.1642 15.8358 12.5 16.25 12.5C16.6642 12.5 17 12.1642 17 11.75V1.75C17 0.783502 16.2165 0 15.25 0H1.75C0.783502 0 0 0.783502 0 1.75V18.25C0 19.2165 0.783501 20 1.75 20H8.75C9.16421 20 9.5 19.6642 9.5 19.25C9.5 18.8358 9.16421 18.5 8.75 18.5H1.75C1.61193 18.5 1.5 18.3881 1.5 18.25V1.75Z" fill="white"/>
<path d="M4.25 5C3.83579 5 3.5 5.33579 3.5 5.75C3.5 6.16421 3.83579 6.5 4.25 6.5H12.75C13.1642 6.5 13.5 6.16421 13.5 5.75C13.5 5.33579 13.1642 5 12.75 5H4.25Z" fill="white"/>
<path d="M3.5 9.75C3.5 9.33579 3.83579 9 4.25 9H8.75C9.16421 9 9.5 9.33579 9.5 9.75C9.5 10.1642 9.16421 10.5 8.75 10.5H4.25C3.83579 10.5 3.5 10.1642 3.5 9.75Z" fill="white"/>
<path d="M19.7803 14.2803C20.0732 13.9874 20.0732 13.5126 19.7803 13.2197C19.4874 12.9268 19.0126 12.9268 18.7197 13.2197L13.75 18.1893L11.7803 16.2197C11.4874 15.9268 11.0126 15.9268 10.7197 16.2197C10.4268 16.5126 10.4268 16.9874 10.7197 17.2803L13.2197 19.7803C13.5126 20.0732 13.9874 20.0732 14.2803 19.7803L19.7803 14.2803Z" fill="white"/>
</svg>
