<svg width="996" height="193" viewBox="0 0 996 193" fill="none" xmlns="http://www.w3.org/2000/svg">
<path d="M45.7718 0.770123C50.4477 -0.990356 55.7252 0.330677 59.0204 4.08644L101.936 53.0005H230.064L272.98 4.08644C276.275 0.330677 281.552 -0.990356 286.228 0.770123C290.904 2.5306 294 7.00416 294 12.0005V120H332V144H270V43.8733L244.52 72.9146C242.242 75.5116 238.955 77.0005 235.5 77.0005H96.5C93.0452 77.0005 89.7581 75.5116 87.4796 72.9146L62 43.8733V144H0V120H38V12.0005C38 7.00416 41.0958 2.5306 45.7718 0.770123Z" fill="white"/>
<path d="M270 168.001H332V192.001H270V168.001Z" fill="white"/>
<path d="M0 168.001H62V192.001H0V168.001Z" fill="white"/>
<path d="M128 128.001C128 136.837 120.837 144.001 112 144.001C103.163 144.001 96 136.837 96 128.001C96 119.164 103.163 112.001 112 112.001C120.837 112.001 128 119.164 128 128.001Z" fill="white"/>
<path d="M236 128.001C236 136.837 228.837 144.001 220 144.001C211.163 144.001 204 136.837 204 128.001C204 119.164 211.163 112.001 220 112.001C228.837 112.001 236 119.164 236 128.001Z" fill="white"/>
<path d="M437.784 160V43.6364H479.261C488.314 43.6364 495.814 45.2841 501.761 48.5796C507.708 51.875 512.159 56.3826 515.114 62.1023C518.068 67.7841 519.545 74.1856 519.545 81.3068C519.545 88.4659 518.049 94.9053 515.057 100.625C512.102 106.307 507.633 110.814 501.648 114.148C495.701 117.443 488.22 119.091 479.205 119.091H450.682V104.205H477.614C483.333 104.205 487.974 103.22 491.534 101.25C495.095 99.2424 497.708 96.5152 499.375 93.0682C501.042 89.6212 501.875 85.7008 501.875 81.3068C501.875 76.9129 501.042 73.0114 499.375 69.6023C497.708 66.1932 495.076 63.5227 491.477 61.5909C487.917 59.6591 483.22 58.6932 477.386 58.6932H455.341V160H437.784Z" fill="white"/>
<path d="M538.764 160V72.7273H555.753V160H538.764ZM547.344 59.2614C544.389 59.2614 541.851 58.2765 539.73 56.3068C537.647 54.2993 536.605 51.9129 536.605 49.1477C536.605 46.3447 537.647 43.9584 539.73 41.9887C541.851 39.9811 544.389 38.9773 547.344 38.9773C550.298 38.9773 552.817 39.9811 554.901 41.9887C557.022 43.9584 558.082 46.3447 558.082 49.1477C558.082 51.9129 557.022 54.2993 554.901 56.3068C552.817 58.2765 550.298 59.2614 547.344 59.2614Z" fill="white"/>
<path d="M578.608 192.727V72.7273H595.199V86.875H596.619C597.604 85.0568 599.025 82.9546 600.881 80.5682C602.737 78.1818 605.313 76.0985 608.608 74.3182C611.903 72.5 616.259 71.5909 621.676 71.5909C628.722 71.5909 635.009 73.3712 640.54 76.9318C646.07 80.4925 650.407 85.625 653.551 92.3296C656.733 99.0341 658.324 107.102 658.324 116.534C658.324 125.966 656.752 134.053 653.608 140.795C650.464 147.5 646.146 152.67 640.653 156.307C635.161 159.905 628.892 161.705 621.847 161.705C616.544 161.705 612.206 160.814 608.835 159.034C605.502 157.254 602.888 155.17 600.994 152.784C599.1 150.398 597.642 148.277 596.619 146.42H595.597V192.727H578.608ZM595.256 116.364C595.256 122.5 596.146 127.879 597.926 132.5C599.706 137.121 602.282 140.739 605.653 143.352C609.025 145.928 613.153 147.216 618.04 147.216C623.116 147.216 627.358 145.871 630.767 143.182C634.176 140.455 636.752 136.761 638.494 132.102C640.275 127.443 641.165 122.197 641.165 116.364C641.165 110.606 640.294 105.436 638.551 100.852C636.847 96.269 634.271 92.6515 630.824 90C627.415 87.3485 623.153 86.0228 618.04 86.0228C613.116 86.0228 608.949 87.2917 605.54 89.8296C602.169 92.3674 599.612 95.9091 597.869 100.455C596.127 105 595.256 110.303 595.256 116.364Z" fill="white"/>
<path d="M714.972 161.761C706.373 161.761 698.968 159.924 692.756 156.25C686.581 152.538 681.809 147.33 678.438 140.625C675.104 133.883 673.438 125.985 673.438 116.932C673.438 107.992 675.104 100.114 678.438 93.2955C681.809 86.4773 686.506 81.1553 692.528 77.3296C698.589 73.5038 705.672 71.5909 713.778 71.5909C718.703 71.5909 723.475 72.4053 728.097 74.0341C732.718 75.6629 736.866 78.2197 740.54 81.7046C744.214 85.1894 747.112 89.7159 749.233 95.2841C751.354 100.814 752.415 107.538 752.415 115.455V121.477H683.04V108.75H735.767C735.767 104.28 734.858 100.322 733.04 96.875C731.222 93.3902 728.665 90.644 725.369 88.6364C722.112 86.6288 718.286 85.625 713.892 85.625C709.119 85.625 704.953 86.7993 701.392 89.1478C697.869 91.4584 695.142 94.4887 693.21 98.2387C691.316 101.951 690.369 105.985 690.369 110.341V120.284C690.369 126.117 691.392 131.08 693.438 135.17C695.521 139.261 698.419 142.386 702.131 144.545C705.843 146.667 710.18 147.727 715.142 147.727C718.362 147.727 721.297 147.273 723.949 146.364C726.6 145.417 728.892 144.015 730.824 142.159C732.756 140.303 734.233 138.011 735.256 135.284L751.335 138.182C750.047 142.917 747.737 147.064 744.403 150.625C741.108 154.148 736.96 156.894 731.96 158.864C726.998 160.795 721.335 161.761 714.972 161.761Z" fill="white"/>
<path d="M808.026 161.761C799.579 161.761 792.306 159.849 786.207 156.023C780.147 152.159 775.488 146.837 772.23 140.057C768.973 133.277 767.344 125.511 767.344 116.761C767.344 107.898 769.01 100.076 772.344 93.2955C775.677 86.4773 780.374 81.1553 786.435 77.3296C792.495 73.5038 799.635 71.5909 807.855 71.5909C814.484 71.5909 820.393 72.822 825.582 75.2841C830.772 77.7084 834.957 81.1174 838.139 85.5114C841.359 89.9053 843.272 95.0379 843.878 100.909H827.344C826.435 96.8182 824.351 93.2955 821.094 90.3409C817.874 87.3864 813.556 85.9091 808.139 85.9091C803.404 85.9091 799.257 87.1591 795.696 89.6591C792.173 92.1212 789.427 95.644 787.457 100.227C785.488 104.773 784.503 110.152 784.503 116.364C784.503 122.727 785.469 128.22 787.401 132.841C789.332 137.462 792.06 141.042 795.582 143.58C799.143 146.117 803.329 147.386 808.139 147.386C811.359 147.386 814.276 146.799 816.889 145.625C819.541 144.413 821.757 142.689 823.537 140.455C825.355 138.22 826.624 135.53 827.344 132.386H843.878C843.272 138.03 841.435 143.068 838.367 147.5C835.298 151.932 831.188 155.417 826.037 157.955C820.923 160.492 814.92 161.761 808.026 161.761Z" fill="white"/>
<path d="M887.443 161.932C881.913 161.932 876.913 160.909 872.443 158.864C867.974 156.78 864.432 153.769 861.818 149.83C859.242 145.89 857.955 141.061 857.955 135.341C857.955 130.417 858.902 126.364 860.795 123.182C862.689 120 865.246 117.481 868.466 115.625C871.686 113.769 875.284 112.367 879.261 111.42C883.239 110.474 887.292 109.754 891.42 109.261C896.648 108.655 900.89 108.163 904.148 107.784C907.405 107.367 909.773 106.705 911.25 105.795C912.727 104.886 913.466 103.409 913.466 101.364V100.966C913.466 96.0038 912.064 92.1591 909.261 89.4318C906.496 86.7046 902.367 85.3409 896.875 85.3409C891.155 85.3409 886.648 86.6099 883.352 89.1478C880.095 91.6478 877.841 94.4318 876.591 97.5L860.625 93.8637C862.519 88.5606 865.284 84.2803 868.92 81.0228C872.595 77.7273 876.818 75.3409 881.591 73.8637C886.364 72.3485 891.383 71.5909 896.648 71.5909C900.133 71.5909 903.826 72.0076 907.727 72.8409C911.667 73.6364 915.341 75.1137 918.75 77.2727C922.197 79.4318 925.019 82.519 927.216 86.5341C929.413 90.5114 930.511 95.6818 930.511 102.045V160H913.92V148.068H913.239C912.14 150.265 910.492 152.424 908.295 154.545C906.099 156.667 903.277 158.428 899.83 159.83C896.383 161.231 892.254 161.932 887.443 161.932ZM891.136 148.295C895.833 148.295 899.849 147.367 903.182 145.511C906.553 143.655 909.11 141.231 910.852 138.239C912.633 135.208 913.523 131.97 913.523 128.523V117.273C912.917 117.879 911.742 118.447 910 118.977C908.296 119.47 906.345 119.905 904.148 120.284C901.951 120.625 899.811 120.947 897.727 121.25C895.644 121.515 893.902 121.742 892.5 121.932C889.205 122.349 886.193 123.049 883.466 124.034C880.777 125.019 878.617 126.439 876.989 128.295C875.398 130.114 874.602 132.538 874.602 135.568C874.602 139.773 876.155 142.955 879.261 145.114C882.367 147.235 886.326 148.295 891.136 148.295Z" fill="white"/>
<path d="M993.878 72.7273V86.3637H946.207V72.7273H993.878ZM958.992 51.8182H975.98V134.375C975.98 137.67 976.473 140.152 977.457 141.818C978.346 143.447 979.711 144.564 981.264 145.17C982.855 145.739 984.579 146.023 986.435 146.023C987.798 146.023 988.992 145.928 990.014 145.739C991.037 145.549 991.832 145.398 992.401 145.284L995.469 159.318C994.484 159.697 993.082 160.076 991.264 160.455C989.446 160.871 987.173 161.099 984.446 161.136C979.976 161.212 975.81 160.417 971.946 158.75C968.082 157.083 964.957 154.508 962.571 151.023C960.185 147.538 958.992 143.163 958.992 137.898V51.8182Z" fill="white"/>
</svg>
